# xmcd
#
# Track frame offsets:
#	150
#	9838
#	30366
#	40414
#	59684
#	70413
#	79891
#	100408
#	111083
#	123812
#	133025
#	143735
#	157867
#	177094
#	189799
#	204442
#	219333
#	228822
#	240098
#	255619
#	272534
#	286435
#	296792
#	307371
#
# Disc length: 4348 seconds
#
# Revision: 0
# Processed by: cddbd v1.5.1PL0 Copyright (c) Steve Scherf et al.
# Submitted via: dBpowerAMP V4.0
#
DISCID=4d10fa18
DTITLE=Tennessee Ernie Ford - Sings songs of the civil war
DYEAR=1991
DGENRE=Country
TTITLE0=The army of the free
TTITLE1=Virginia's bloody soil
TTITLE2=Marching song
TTITLE3=The why and the wherefore
TTITLE4=The vacant chair
TTITLE5=The fall of Charleston
TTITLE6=The New York volunteer
TTITLE7=The faded coat of blue
TTITLE8=Marching through Georgia
TTITLE9=Just before the battle mother
TTITLE10=The girl I left behind me
TTITLE11=Union dixie
TTITLE12=Stonewall Jackson's way
TTITLE13=Lorena
TTITLE14=Riding a raid
TTITLE15=Maryland my Maryland
TTITLE16=Goober peas
TTITLE17=I can whip the scoundrel
TTITLE18=The Bonnie blue flag
TTITLE19=The valiant conscript
TTITLE20=The rebel soldier
TTITLE21=The southern wagon
TTITLE22=Flight of doodles
TTITLE23=Dixie
EXTD=album: Tennessee Ernie Ford Sings Songs of the Civil War\n
EXTT0=
EXTT1=
EXTT2=
EXTT3=
EXTT4=
EXTT5=
EXTT6=
EXTT7=
EXTT8=
EXTT9=
EXTT10=
EXTT11=
EXTT12=
EXTT13=
EXTT14=
EXTT15=
EXTT16=
EXTT17=
EXTT18=
EXTT19=
EXTT20=
EXTT21=
EXTT22=
EXTT23=
PLAYORDER=
